<svg width="14" height="14" viewBox="0 0 14 14" fill="none" xmlns="http://www.w3.org/2000/svg">
<g clip-path="url(#clip0_132_1123)">
<path fill-rule="evenodd" clip-rule="evenodd" d="M7.01952 0.250001C6.86117 0.249814 6.70452 0.282618 6.55955 0.346322C6.41458 0.410025 6.28447 0.503232 6.17752 0.620001L5.04452 1.745C4.92385 1.49629 4.76113 1.2703 4.56352 1.077C4.10125 0.614728 3.47427 0.355027 2.82052 0.355027C2.16677 0.355027 1.53979 0.614728 1.07752 1.077C0.615246 1.53927 0.355544 2.16625 0.355544 2.82C0.355544 3.47375 0.615246 4.10073 1.07752 4.563C1.27052 4.76 1.49352 4.92 1.73752 5.04L0.619518 6.138C0.502482 6.24482 0.409001 6.37487 0.345041 6.51985C0.281081 6.66483 0.248047 6.82154 0.248047 6.98C0.248047 7.13846 0.281081 7.29518 0.345041 7.44015C0.409001 7.58513 0.502482 7.71518 0.619518 7.822L2.08552 9.289C2.14194 9.34548 2.21107 9.38763 2.28712 9.41192C2.36316 9.43621 2.44392 9.44193 2.52264 9.42862C2.60135 9.4153 2.67573 9.38333 2.73956 9.33538C2.80339 9.28743 2.85481 9.22489 2.88952 9.153C2.981 8.95801 3.114 8.78536 3.2792 8.64715C3.4444 8.50894 3.63781 8.40851 3.84589 8.35289C4.05397 8.29727 4.2717 8.28779 4.48382 8.32514C4.69595 8.36248 4.89735 8.44573 5.07393 8.56907C5.25051 8.69241 5.398 8.85285 5.50607 9.03917C5.61414 9.22548 5.68018 9.43316 5.69958 9.64768C5.71897 9.86219 5.69124 10.0784 5.61834 10.281C5.54543 10.4837 5.42911 10.668 5.27752 10.821C5.15636 10.9388 5.01731 11.0367 4.86552 11.111C4.79472 11.1454 4.73304 11.1961 4.68552 11.2588C4.63799 11.3216 4.60595 11.3947 4.59202 11.4722C4.57808 11.5496 4.58264 11.6293 4.60531 11.7047C4.62799 11.7801 4.66815 11.8491 4.72252 11.906L6.13552 13.376C6.24226 13.4933 6.37223 13.587 6.51717 13.6514C6.66211 13.7157 6.81885 13.7492 6.97742 13.7496C7.13599 13.7501 7.29292 13.7176 7.43824 13.6541C7.58356 13.5906 7.71409 13.4976 7.82152 13.381L8.95752 12.251C9.12896 12.6043 9.38243 12.9115 9.69677 13.1469C10.0111 13.3823 10.3772 13.5391 10.7645 13.6042C11.1518 13.6692 11.549 13.6407 11.923 13.521C12.297 13.4013 12.637 13.1939 12.9145 12.916C13.1919 12.6391 13.3992 12.2999 13.5191 11.9268C13.6391 11.5536 13.6682 11.1572 13.6042 10.7705C13.5401 10.3838 13.3847 10.018 13.1508 9.70344C12.9169 9.38889 12.6114 9.13471 12.2595 8.962L13.3785 7.862C13.4953 7.75492 13.5886 7.62474 13.6524 7.4797C13.7161 7.33466 13.7491 7.17795 13.7491 7.0195C13.7491 6.86105 13.7161 6.70434 13.6524 6.5593C13.5886 6.41427 13.4953 6.28408 13.3785 6.177L11.8915 4.709C11.8349 4.65322 11.7659 4.61172 11.6901 4.58795C11.6143 4.56418 11.5339 4.55881 11.4556 4.5723C11.3773 4.58579 11.3033 4.61775 11.2398 4.66552C11.1764 4.71329 11.1252 4.7755 11.0905 4.847C11.0186 4.99529 10.9241 5.13156 10.8105 5.251C10.5303 5.50446 10.1634 5.64056 9.78569 5.63114C9.40797 5.62173 9.04831 5.46753 8.78107 5.20042C8.51384 4.93331 8.35946 4.57373 8.34987 4.19601C8.34027 3.81829 8.47619 3.45133 8.72952 3.171C8.85018 3.05567 8.98485 2.962 9.13352 2.89C9.20467 2.85567 9.26668 2.80496 9.31446 2.74203C9.36223 2.6791 9.39442 2.60575 9.40837 2.52799C9.42232 2.45022 9.41765 2.37026 9.39473 2.29465C9.37181 2.21904 9.3313 2.14993 9.27652 2.093L7.86352 0.623001C7.7566 0.505438 7.62629 0.411525 7.48094 0.34729C7.3356 0.283055 7.17843 0.249916 7.01952 0.250001Z" fill="#353535"/>
</g>
<defs>
<clipPath id="clip0_132_1123">
<rect width="14" height="14" fill="white"/>
</clipPath>
</defs>
</svg>
