<svg width="19" height="14" viewBox="0 0 19 14" fill="none" xmlns="http://www.w3.org/2000/svg">
<path d="M10.676 0H10.714C10.9792 0 11.2336 0.105357 11.4211 0.292893C11.6086 0.48043 11.714 0.734784 11.714 1C11.714 1.26522 11.6086 1.51957 11.4211 1.70711C11.2336 1.89464 10.9792 2 10.714 2C9.419 2 8.448 2 7.677 2.062C6.904 2.124 6.447 2.241 6.139 2.405C5.45488 2.77676 4.90548 3.35486 4.569 4.057C4.398 4.411 4.289 4.863 4.231 5.605C4.179 6.263 4.173 7.081 4.171 8.185L4.864 7.493C5.05151 7.30536 5.30588 7.19989 5.57115 7.1998C5.83642 7.1997 6.09086 7.30499 6.2785 7.4925C6.46614 7.68001 6.57161 7.93438 6.5717 8.19965C6.5718 8.46492 6.46651 8.71936 6.279 8.907L3.879 11.307C3.78316 11.4031 3.66877 11.4786 3.54281 11.529C3.41684 11.5795 3.28192 11.6038 3.14627 11.6004C3.01062 11.597 2.87707 11.5661 2.75376 11.5095C2.63045 11.4528 2.51995 11.3717 2.429 11.271L0.259 8.871C0.170883 8.77363 0.102808 8.65985 0.0586626 8.53616C0.014517 8.41248 -0.00483493 8.28131 0.0017116 8.15015C0.00825813 8.01899 0.040575 7.8904 0.096817 7.77172C0.153059 7.65305 0.232125 7.54662 0.3295 7.4585C0.426875 7.37038 0.540653 7.30231 0.664337 7.25816C0.788021 7.21402 0.919188 7.19467 1.05035 7.20121C1.18151 7.20776 1.3101 7.24008 1.42878 7.29632C1.54745 7.35256 1.65388 7.43163 1.742 7.529L2.172 8.005C2.173 6.987 2.182 6.149 2.237 5.45C2.304 4.591 2.443 3.858 2.77 3.184C3.29062 2.10196 4.13966 1.21197 5.196 0.641C5.866 0.282 6.652 0.138 7.518 0.0689998C8.378 -2.30968e-07 9.429 0 10.676 0ZM14.853 2.4C14.9885 2.40362 15.1218 2.43473 15.2449 2.49146C15.368 2.54819 15.4782 2.62935 15.569 2.73L17.74 5.13C17.835 5.22604 17.9096 5.34034 17.9592 5.466C18.0089 5.59166 18.0325 5.72608 18.0287 5.86113C18.025 5.99618 17.9939 6.12907 17.9374 6.25178C17.8808 6.37449 17.8 6.48447 17.6998 6.57508C17.5996 6.66569 17.4821 6.73506 17.3543 6.77899C17.2265 6.82292 17.0912 6.8405 16.9564 6.83068C16.8217 6.82086 16.6903 6.78384 16.5703 6.72185C16.4503 6.65986 16.344 6.57418 16.258 6.47L15.828 5.995C15.826 7.013 15.817 7.851 15.762 8.55C15.695 9.409 15.556 10.142 15.229 10.816C14.7084 11.898 13.8593 12.788 12.803 13.359C12.133 13.717 11.347 13.862 10.481 13.931C9.621 14 8.571 14 7.324 14H7.284C7.01878 14 6.76443 13.8946 6.57689 13.7071C6.38936 13.5196 6.284 13.2652 6.284 13C6.284 12.7348 6.38936 12.4804 6.57689 12.2929C6.76443 12.1054 7.01878 12 7.284 12C8.58 12 9.551 12 10.322 11.938C11.095 11.876 11.552 11.759 11.86 11.595C12.5441 11.2232 13.0935 10.6451 13.43 9.943C13.601 9.589 13.71 9.137 13.768 8.395C13.82 7.737 13.827 6.919 13.828 5.815L13.135 6.507C12.9464 6.68916 12.6938 6.78995 12.4316 6.78767C12.1694 6.7854 11.9186 6.68023 11.7332 6.49482C11.5478 6.30941 11.4426 6.0586 11.4403 5.7964C11.438 5.5342 11.5388 5.2816 11.721 5.093L14.121 2.693C14.2168 2.5971 14.3311 2.52168 14.4569 2.47131C14.5827 2.42094 14.7175 2.39668 14.853 2.4Z" fill="black"/>
</svg>
