<svg width="256" height="39" viewBox="0 0 256 39" fill="none" xmlns="http://www.w3.org/2000/svg">
<path d="M15.064 0.000633279C15.5357 0.0119473 15.9914 0.174105 16.3642 0.463325C16.737 0.752545 17.0073 1.15361 17.1356 1.6077L23.9083 25.6219C24.1786 26.5802 25.5306 26.5979 25.8258 25.647L30.5643 10.3847C30.6971 9.95778 30.9565 9.58122 31.3081 9.30492C31.6597 9.02863 32.0869 8.86562 32.5331 8.83748C32.9794 8.80933 33.4237 8.91738 33.8072 9.14732C34.1907 9.37726 34.4954 9.71825 34.6808 10.1251L38.2413 17.9575C38.4036 18.3145 38.7595 18.5437 39.1516 18.5437H43.7086C44.2941 18.5437 44.8556 18.7763 45.2696 19.1903C45.6836 19.6042 45.9161 20.1657 45.9161 20.7512C45.9161 21.3367 45.6836 21.8982 45.2696 22.3121C44.8556 22.7261 44.2941 22.9587 43.7086 22.9587H37.0861C36.6622 22.9587 36.2473 22.8366 35.8909 22.607C35.5345 22.3775 35.2517 22.0502 35.0764 21.6642L34.1483 19.6225C33.768 18.7859 32.5553 18.8622 32.2829 19.7399L26.8327 37.3004C26.6915 37.7552 26.407 38.152 26.0218 38.4318C25.6365 38.7117 25.1711 38.8594 24.695 38.8531C24.2189 38.8467 23.7576 38.6866 23.38 38.3966C23.0023 38.1066 22.7286 37.7022 22.5996 37.2439L15.7174 12.847C15.4499 11.8991 14.1176 11.8679 13.8062 12.8023L10.9245 21.4488C10.7781 21.8884 10.497 22.2709 10.121 22.5419C9.74513 22.8129 9.29345 22.9587 8.83003 22.9587H2.20751C1.62204 22.9587 1.06055 22.7261 0.646564 22.3121C0.232576 21.8982 0 21.3367 0 20.7512C0 20.1657 0.232576 19.6042 0.646564 19.1903C1.06055 18.7763 1.62204 18.5437 2.20751 18.5437H6.5181C6.94853 18.5437 7.33067 18.2683 7.46678 17.8599L12.9166 1.51057C13.0658 1.06218 13.3549 0.673505 13.7415 0.401702C14.128 0.129899 14.5916 -0.0106822 15.064 0.000633279Z" fill="white"/>
<path d="M55.9473 6.78125H73.6304V10.6128H64.6195L66.8553 12.6133V30.5164H62.7563V13.5627L61.7739 10.6128H55.9473V6.78125Z" fill="white"/>
<path d="M79.7149 6.78125H92.9264V10.6128H81.2731L80.6634 11.2909V16.6144H88.4887V20.4459H80.6634V25.1929L81.6458 26.6848H92.9264V30.5164H79.6132L76.5644 25.9728V10.0024L79.7149 6.78125Z" fill="white"/>
<path d="M97.2154 6.78125H101.314V25.159L102.365 26.6848H109.512V24.2096H113.611V30.5164H100.298L97.2154 25.8372V6.78125Z" fill="white"/>
<path d="M120.339 6.78125H133.551V10.6128H121.898L121.288 11.2909V16.6144H129.113V20.4459H121.288V25.1929L122.27 26.6848H133.551V30.5164H120.238L117.189 25.9728V10.0024L120.339 6.78125Z" fill="white"/>
<path d="M137.874 6.78125H141.973V7.15423L145.53 12.4777L150.137 6.78125H154.236V30.5164H150.137V12.3081L147.461 15.4615V17.5977H144.513V17.0552L141.973 13.2575V30.5164H137.874V6.78125Z" fill="white"/>
<path d="M160.964 6.78125H174.175V10.6128H162.522L161.912 11.2909V16.6144H169.738V20.4459H161.912V25.1929L162.895 26.6848H174.175V30.5164H160.862L157.813 25.9728V10.0024L160.964 6.78125Z" fill="white"/>
<path d="M177.821 6.78125H195.504V10.6128H186.493L188.729 12.6133V30.5164H184.63V13.5627L183.647 10.6128H177.821V6.78125Z" fill="white"/>
<path d="M198.777 6.78125H211.209L215.173 12.5794V16.5466L212.056 19.7677L215.173 24.3452V30.5164H211.074V25.0573L207.991 20.5476H204.671L202.876 19.4287V30.5164H198.777V6.78125ZM202.876 10.6128V16.7161H209.752L211.074 15.3598V13.3932L209.143 10.6128H202.876Z" fill="white"/>
<path d="M219.089 6.78125H235.485V10.6128H229.319V26.6848H235.485V30.5164H219.089V26.6848H225.22V10.6128H219.089V6.78125Z" fill="white"/>
<path d="M243.026 6.78125H253.189L255.933 10.9179L253.223 13.7662L251.156 10.6467H244.584L243.974 11.3248V25.1929L244.957 26.6848H251.461L253.866 24.2774L256 27.4647L253.087 30.5164H242.924L239.875 25.9728V9.96854L243.026 6.78125Z" fill="white"/>
</svg>
