<svg width="32" height="32" viewBox="0 0 32 32" fill="none" xmlns="http://www.w3.org/2000/svg">
<path d="M19.8173 17.8668V6.58546C19.8093 5.5721 19.4077 4.60153 18.6973 3.8788C18.3091 3.49404 17.8426 3.19727 17.3296 3.00863C16.8166 2.81999 16.269 2.74388 15.724 2.78546C14.7373 2.88206 13.8236 3.34792 13.1659 4.08968C12.5082 4.83145 12.1551 5.79435 12.1773 6.78546L12.1907 17.8255C11.2144 18.5587 10.4707 19.5582 10.0488 20.7039C9.62684 21.8497 9.54472 23.0928 9.81226 24.2841C10.0798 25.4754 10.6856 26.564 11.5569 27.4193C12.4282 28.2746 13.528 28.8601 14.724 29.1055C15.1415 29.185 15.5656 29.2252 15.9907 29.2255C17.6717 29.2258 19.2842 28.5591 20.4741 27.3717C21.664 26.1842 22.3341 24.5732 22.3373 22.8921C22.3393 21.9158 22.1124 20.9526 21.6747 20.0799C21.2371 19.2071 20.6009 18.4492 19.8173 17.8668ZM19.1773 26.7468C18.5982 27.2209 17.9209 27.5601 17.1945 27.74C16.4681 27.9199 15.7107 27.9359 14.9773 27.7868C14.004 27.593 13.1118 27.1101 12.4172 26.4012C11.7226 25.6924 11.258 24.7905 11.084 23.8135C10.9107 22.8971 10.9974 21.9506 11.3344 21.081C11.6714 20.2115 12.2451 19.4537 12.9907 18.8935C13.1513 18.7747 13.282 18.62 13.3723 18.4417C13.4625 18.2635 13.5099 18.0666 13.5107 17.8668V6.78546C13.4953 6.13389 13.723 5.49991 14.1494 5.00698C14.5757 4.51405 15.1703 4.19744 15.8173 4.1188C15.8789 4.10773 15.9415 4.10326 16.004 4.10546C16.6598 4.11172 17.287 4.37501 17.7507 4.83875C18.2144 5.3025 18.4777 5.92966 18.484 6.58546V17.8668C18.4847 18.0666 18.5321 18.2635 18.6224 18.4417C18.7127 18.62 18.8433 18.7747 19.004 18.8935C19.6099 19.3469 20.1048 19.9323 20.451 20.6053C20.7973 21.2783 20.9859 22.0213 21.0026 22.7779C21.0193 23.5346 20.8637 24.2851 20.5474 24.9728C20.2312 25.6604 19.7627 26.267 19.1773 26.7468Z" fill="black"/>
<path d="M18.524 22.8919C18.524 23.5602 18.2585 24.2012 17.7859 24.6738C17.3133 25.1464 16.6723 25.4119 16.004 25.4119C15.3357 25.4119 14.6947 25.1464 14.2221 24.6738C13.7495 24.2012 13.484 23.5602 13.484 22.8919C13.4805 22.3408 13.6608 21.8042 13.9965 21.3671C14.3321 20.93 14.804 20.6173 15.3373 20.4785V7.19987C15.3373 7.02306 15.4076 6.85349 15.5326 6.72847C15.6576 6.60344 15.8272 6.5332 16.004 6.5332C16.1808 6.5332 16.3504 6.60344 16.4754 6.72847C16.6004 6.85349 16.6707 7.02306 16.6707 7.19987V20.4799C17.2025 20.6209 17.6728 20.934 18.008 21.3703C18.3433 21.8066 18.5247 22.3416 18.524 22.8919Z" fill="black"/>
</svg>
