<svg width="91" height="26" viewBox="0 0 91 26" fill="none" xmlns="http://www.w3.org/2000/svg">
<path d="M1.11651 0.0644248H8.27169C8.34603 0.0644248 8.41324 0.110265 8.44267 0.181036L12.3974 9.71693L16.3522 0.181036C16.3816 0.110265 16.4488 0.0644248 16.5231 0.0644248H23.6783C23.8442 0.0644248 23.9257 0.27423 23.8088 0.396213C22.4855 1.77659 21.2929 3.07143 20.2118 4.2453C16.6095 8.15664 14.2439 10.7665 12.3974 10.6822C10.5508 10.7665 8.18535 8.15664 4.58303 4.2453C3.5019 3.07143 2.30937 1.7766 0.986029 0.396213C0.869087 0.27423 0.95063 0.0644248 1.11651 0.0644248Z" fill="white"/>
<path d="M1.11651 25.9354H8.27169C8.34603 25.9354 8.41324 25.8896 8.44267 25.8188L12.3974 16.2829L16.3522 25.8188C16.3816 25.8896 16.4488 25.9354 16.5231 25.9354H23.6783C23.8442 25.9354 23.9257 25.7256 23.8088 25.6036C22.4855 24.2232 21.2929 22.9284 20.2118 21.7545C16.6095 17.8432 14.2439 15.2333 12.3974 15.3176C10.5508 15.2333 8.18535 17.8432 4.58303 21.7545C3.5019 22.9284 2.30937 24.2232 0.986029 25.6036C0.869087 25.7256 0.95063 25.9354 1.11651 25.9354Z" fill="white"/>
<path d="M24.9522 1.4V8.81853C24.9522 8.8956 24.908 8.96528 24.8398 8.9958L15.6424 13.0961L24.8398 17.1964C24.908 17.2269 24.9522 17.2966 24.9522 17.3737V24.7922C24.9522 24.9642 24.7499 25.0487 24.6322 24.9275C23.3009 23.5554 22.052 22.319 20.9198 21.1981C17.1473 17.4632 14.6301 15.0106 14.7114 13.0961C14.6301 11.1815 17.1473 8.729 20.9198 4.9941C22.052 3.87318 23.3009 2.63676 24.6322 1.26471C24.7499 1.14347 24.9522 1.22801 24.9522 1.4Z" fill="white"/>
<path d="M9.86211e-07 1.4L6.73446e-07 8.81853C6.70197e-07 8.8956 0.0442135 8.96528 0.112473 8.9958L9.30986 13.0961L0.112472 17.1964C0.0442132 17.2269 3.16015e-07 17.2966 3.12765e-07 17.3737L0 24.7922C-7.24865e-09 24.9642 0.202358 25.0487 0.32001 24.9275C1.65139 23.5554 2.90026 22.319 4.03246 21.1981C7.80496 17.4632 10.3222 15.0106 10.2408 13.0961C10.3222 11.1815 7.80496 8.729 4.03246 4.9941C2.90026 3.87318 1.65139 2.63676 0.320011 1.26471C0.202359 1.14347 9.93462e-07 1.22801 9.86211e-07 1.4Z" fill="white"/>
<path d="M13.9648 12.9837C13.9648 13.8367 13.2979 14.5281 12.4752 14.5281C11.6525 14.5281 10.9856 13.8367 10.9856 12.9837C10.9856 12.1308 11.6525 11.4393 12.4752 11.4393C13.2979 11.4393 13.9648 12.1308 13.9648 12.9837Z" fill="white"/>
<path d="M50.9 0V16.4269C50.9 18.3639 50.692 19.829 50.276 20.8224C49.5953 22.4737 48.4356 23.7526 46.7968 24.659C45.1959 25.553 43.3239 26 41.1809 26C38.4203 26 36.2017 25.2612 34.5251 23.7837C32.5208 22.0454 31.5186 19.5062 31.5186 16.1662C31.5186 15.8806 31.5312 15.4522 31.5564 14.8811H38.7606C38.748 15.2536 38.7417 15.5392 38.7417 15.7378C38.7417 17.3023 38.9056 18.3329 39.2334 18.8295C39.6241 19.4131 40.2418 19.7049 41.0864 19.7049C42.1327 19.7049 42.7819 19.2268 43.034 18.2708C43.1096 17.9604 43.1475 17.3768 43.1475 16.5201V0H50.9Z" fill="white"/>
<path d="M63.0651 9.53582V25.4226H55.3125V9.53582H63.0651Z" fill="white"/>
<path d="M91 0V25.4226H83.1151L75.3058 12.3295V25.4226H67.5532V0H75.3625L83.2474 13.2607V0H91Z" fill="white"/>
<path d="M59.2488 0C60.3747 0 61.2967 0.368815 62.0149 1.10645C62.7525 1.84408 63.1213 2.7467 63.1213 3.81433C63.1213 4.86254 62.7525 5.76517 62.0149 6.52221C61.2967 7.25984 60.3747 7.62865 59.2488 7.62865C58.123 7.62865 57.1913 7.25984 56.4537 6.52221C55.7354 5.76517 55.3763 4.86254 55.3763 3.81433C55.3763 2.7467 55.7452 1.84408 56.4828 1.10645C57.2204 0.368815 58.1424 0 59.2488 0Z" fill="white"/>
</svg>
